<?xml version="1.0" encoding="utf-8"?>
<!-- Generator: Adobe Illustrator 16.0.3, SVG Export Plug-In . SVG Version: 6.00 Build 0)  -->
<!DOCTYPE svg PUBLIC "-//W3C//DTD SVG 1.1//EN" "http://www.w3.org/Graphics/SVG/1.1/DTD/svg11.dtd">
<svg version="1.1" id="Livello_2" xmlns="http://www.w3.org/2000/svg" xmlns:xlink="http://www.w3.org/1999/xlink" x="0px" y="0px"
	 width="500px" height="500.031px" viewBox="0 -0.016 500 500.031" enable-background="new 0 -0.016 500 500.031"
	 xml:space="preserve">
<g>
	<path fill-rule="evenodd" clip-rule="evenodd" d="M249.268,43.797c-54.886,0-106.431,11.538-152.289,36.057
		c26.864,13.383,63.043,24.307,93.857,30.79c1.2-1.18,2.254-2.299,3.245-3.559c-0.607-2.812-1.912-7.244-2.316-9.609
		c6.329-4.333,26.222-12.364,26.222-12.364l-2.596-24.22l10.439-3.733l9.845,24.011c68.026-5.802,75.109,24.014,79.079,32.753
		c33.724-4.975,67.977-15.693,93.815-30.067C371.679,62.176,315.089,43.797,249.268,43.797z"/>
	<path fill-rule="evenodd" clip-rule="evenodd" d="M33.488,130.973c17.877,5.687,53.938,16.025,115.104,25.305
		c5.199-7.906,29.768-31.853,35.706-38.795c-47.952-9.176-84.954-25.239-98.337-31.302C68.349,96.653,48.309,112.581,33.488,130.973
		z M318.347,163.291c71.725-3.901,130.094-18.564,152.275-26.306c-13.467-18.449-34.839-36.368-52.262-47.197
		c-12.457,6.817-46.187,22.545-101.115,30.908C322.491,133.963,318.347,163.291,318.347,163.291z"/>
	<path fill-rule="evenodd" clip-rule="evenodd" d="M1.726,211.214c18.98,0,184.443,0,184.443,0
		c13.195-22.852,43.045-37.519,43.045-37.519s-19.81-1.18-31.461-1.731c-8.953,7.187-27.87,25.616-47.449-6.126
		c-41.594-5.112-91.736-16.545-123.039-26.703C8.271,165.475,2.409,191.041,1.726,211.214z M498.296,211.214
		c-0.271-20.623-7.515-43.621-20.654-64.114c-13.494,3.82-68.96,20.995-161.297,26.041c-2.156,12.8-6.705,27.015-7.669,38.074
		C316.931,211.18,483.65,211.214,498.296,211.214z"/>
	<path fill-rule="evenodd" clip-rule="evenodd" d="M1.789,220.934c7.829-0.094,178.595,0.042,178.595,0.042
		c-3.957,7.647-7.292,24.562-6.497,33.489c-96.641,8.475-139.017,23.924-152.561,28.067C11.39,266.264,3.003,246.409,1.789,220.934z
		 M307.706,220.976c6.838-0.021,184.771-0.021,190.526,0c-1.275,28.106-12.565,50.54-21.734,64.306
		c-11.555-3.314-69.568-22.112-159.03-30.217C313.233,249.49,306.255,236.222,307.706,220.976z"/>
	<path fill-rule="evenodd" clip-rule="evenodd" d="M26.971,291.061c9.769-3.685,64.049-21.395,147.795-27.521
		c0.6,9.121,3.594,19.622,3.594,19.622s136.68-0.076,141.193-0.021c7.049-7.737,3.357-18.309,3.357-18.309
		c67.522,5.296,135.354,24.78,147.495,29.066c-13.391,17.925-34.568,36.648-57.071,49.858
		c-18.742-7.211-67.852-29.362-133.407-34.658c7.118-10.062,33.277-12.406,39.661-13.348l0.035-9.533l-141.298-0.035l0.035,9.609
		c0,0,30.354,0.363,37.68,12.615c-81.535,6.818-123.82,33.313-128.837,36.584C63.946,331.262,41.744,312.283,26.971,291.061z"/>
	<path fill-rule="evenodd" clip-rule="evenodd" d="M401.87,350.259c-21.169,11.552-48.773,21.673-74.444,27.405v-40.111
		c-9.079,0.105-11.953,0.311-17.605,0.293c-12.477-0.049-20.033-1.214-26.229-5.645c-6.672-4.77-7.243-11.978-6.462-15.376
		C348.255,323.317,401.87,350.259,401.87,350.259z"/>
	<path fill-rule="evenodd" clip-rule="evenodd" d="M167.789,377.081c-26.718-6.252-51.607-15.957-71.383-26.854
		c21.352-14.552,64.705-30.845,123.297-34.542c0.656,2.219,1.263,12.119-6.301,17.03c-10.229,6.631-45.613,4.523-45.613,4.523
		V377.081z"/>
	<g>
		<path d="M184.996,348.839h26.254v7.962h-16.506v9.818h15.421v7.897h-15.421v17.271h-9.748V348.839z"/>
		<path d="M228.32,348.839v42.948h-9.751v-42.948H228.32z"/>
		<path d="M236.729,349.411c3.565-0.572,8.22-0.893,13.125-0.893c8.158,0,13.446,1.464,17.591,4.591
			c4.458,3.312,7.263,8.601,7.263,16.182c0,8.223-2.993,13.893-7.138,17.402c-4.524,3.758-11.408,5.54-19.816,5.54
			c-5.038,0-8.604-0.317-11.025-0.635V349.411z M246.477,384.461c0.831,0.188,2.167,0.188,3.377,0.188
			c8.796,0.066,14.531-4.775,14.531-15.036c0.063-8.922-5.159-13.64-13.512-13.64c-2.164,0-3.566,0.193-4.396,0.385V384.461z"/>
		<path d="M306.626,373.628H290.82v10.198h17.653v7.961h-27.4v-42.948h26.508v7.962H290.82v8.925h15.806V373.628z"/>
	</g>
	<g>
		<path d="M62.495,453.935c-2.547,0.854-7.368,2.033-12.19,2.033c-6.664,0-11.489-1.659-14.849-4.873
			c-3.359-3.109-5.202-7.826-5.149-13.129c0.056-12.001,8.889-18.86,20.863-18.86c4.717,0,8.345,0.906,10.131,1.764l-1.73,6.539
			c-2.006-0.857-4.501-1.556-8.509-1.556c-6.883,0-12.083,3.858-12.083,11.684c0,7.45,4.714,11.845,11.485,11.845
			c1.899,0,3.413-0.216,4.065-0.536v-7.558h-5.635v-6.378h13.6V453.935z"/>
		<path d="M90.688,440.323H77.252v8.573h15.01v6.699H68.959v-36.118h22.542v6.696H77.252v7.504h13.436V440.323z"/>
		<path d="M97.907,455.596v-36.118h9.647l7.588,13.234c2.163,3.806,4.333,8.31,5.959,12.378h0.16
			c-0.541-4.767-0.704-9.644-0.704-15.059v-10.554h7.587v36.118h-8.669l-7.801-13.932c-2.17-3.859-4.553-8.52-6.343-12.755
			l-0.161,0.055c0.216,4.767,0.325,9.859,0.325,15.753v10.879H97.907z"/>
		<path d="M135.586,447.184c2.219,1.124,5.635,2.247,9.155,2.247c3.795,0,5.798-1.55,5.798-3.907c0-2.255-1.731-3.539-6.12-5.095
			c-6.071-2.087-10.027-5.411-10.027-10.662c0-6.161,5.202-10.879,13.815-10.879c4.12,0,7.153,0.858,9.323,1.822l-1.842,6.594
			c-1.465-0.697-4.065-1.716-7.641-1.716c-3.576,0-5.31,1.604-5.31,3.481c0,2.303,2.058,3.321,6.775,5.094
			c6.448,2.354,9.479,5.679,9.479,10.766c0,6.058-4.713,11.2-14.74,11.2c-4.169,0-8.29-1.067-10.348-2.194L135.586,447.184z"/>
		<path d="M183.775,419.478v20.791c0,6.218,2.383,9.378,6.608,9.378c4.336,0,6.72-3,6.72-9.378v-20.791h8.241v20.254
			c0,11.15-5.694,16.453-15.229,16.453c-9.214,0-14.629-5.038-14.629-16.558v-20.149H183.775z"/>
		<path d="M212.509,455.596v-36.118h9.644l7.588,13.234c2.167,3.806,4.337,8.31,5.963,12.378h0.16
			c-0.544-4.767-0.704-9.644-0.704-15.059v-10.554h7.584v36.118h-8.667l-7.805-13.932c-2.166-3.859-4.552-8.52-6.339-12.755
			l-0.161,0.055c0.216,4.767,0.321,9.859,0.321,15.753v10.879H212.509z"/>
		<path d="M258.423,446.325l-2.604,9.271h-8.561l11.165-36.118h10.836l11.326,36.118h-8.888l-2.815-9.271H258.423z M267.689,440.216
			l-2.274-7.665c-0.653-2.142-1.306-4.821-1.843-6.963h-0.111c-0.541,2.142-1.081,4.877-1.679,6.963l-2.166,7.665H267.689z"/>
		<path d="M296.695,447.184c2.226,1.124,5.639,2.247,9.163,2.247c3.787,0,5.798-1.55,5.798-3.907c0-2.255-1.737-3.539-6.126-5.095
			c-6.068-2.087-10.024-5.411-10.024-10.662c0-6.161,5.201-10.879,13.819-10.879c4.117,0,7.152,0.858,9.318,1.822l-1.843,6.594
			c-1.461-0.697-4.063-1.716-7.64-1.716s-5.31,1.604-5.31,3.481c0,2.303,2.059,3.321,6.771,5.094
			c6.448,2.354,9.483,5.679,9.483,10.766c0,6.058-4.714,11.2-14.737,11.2c-4.174,0-8.29-1.067-10.349-2.194L296.695,447.184z"/>
		<path d="M333.936,419.478v20.791c0,6.218,2.387,9.378,6.611,9.378c4.337,0,6.719-3,6.719-9.378v-20.791h8.238v20.254
			c0,11.15-5.69,16.453-15.226,16.453c-9.214,0-14.631-5.038-14.631-16.558v-20.149H333.936z"/>
		<path d="M393.561,441.769c-0.163-4.34-0.327-9.591-0.327-14.842h-0.161c-1.137,4.605-2.659,9.752-4.069,13.982l-4.44,14.096
			h-6.446l-3.905-13.983c-1.189-4.235-2.436-9.378-3.3-14.095H370.8c-0.217,4.878-0.378,10.449-0.649,14.949l-0.65,13.72h-7.64
			l2.331-36.118h10.997l3.58,12.055c1.137,4.18,2.273,8.684,3.083,12.915h0.164c1.029-4.179,2.278-8.948,3.468-12.964l3.903-12.006
			h10.781l2.007,36.118h-8.077L393.561,441.769z"/>
		<path d="M416.771,419.478v20.791c0,6.218,2.383,9.378,6.612,9.378c4.333,0,6.72-3,6.72-9.378v-20.791h8.233v20.254
			c0,11.15-5.688,16.453-15.226,16.453c-9.211,0-14.634-5.038-14.634-16.558v-20.149H416.771z"/>
		<path d="M445.774,447.184c2.226,1.124,5.639,2.247,9.162,2.247c3.789,0,5.799-1.55,5.799-3.907c0-2.255-1.738-3.539-6.128-5.095
			c-6.065-2.087-10.021-5.411-10.021-10.662c0-6.161,5.2-10.879,13.818-10.879c4.117,0,7.153,0.858,9.318,1.822l-1.842,6.594
			c-1.461-0.697-4.063-1.716-7.641-1.716c-3.576,0-5.31,1.604-5.31,3.481c0,2.303,2.058,3.321,6.772,5.094
			c6.446,2.354,9.481,5.679,9.481,10.766c0,6.058-4.712,11.2-14.736,11.2c-4.173,0-8.29-1.067-10.348-2.194L445.774,447.184z"/>
	</g>
</g>
</svg>
