<?xml version="1.0" encoding="utf-8"?>
<!-- Generator: Adobe Illustrator 24.0.1, SVG Export Plug-In . SVG Version: 6.00 Build 0)  -->
<svg version="1.1" id="Réteg_1" xmlns="http://www.w3.org/2000/svg" xmlns:xlink="http://www.w3.org/1999/xlink" x="0px" y="0px"
	 viewBox="0 0 191 36" style="enable-background:new 0 0 191 36;" xml:space="preserve">
<style type="text/css">
	.st0{fill:#009739;}
</style>
<path class="st0" d="M52.7,1.5l-1.2,8.4l4.9,0l-3.9,25.8l9.2,0l3.7-25.9l5.2,0l1.2-8.3L52.7,1.5z M39.8,0.4
	c-7.6-1.4-13.8,4.4-16.4,14c-2.7,9.8-0.7,19.5,7.4,21.3c6.9,1.5,14.4-5.3,16.6-15.3C49.3,11,46.7,1.7,39.8,0.4z M38.3,19.7
	c-1.1,5.1-3.5,8.3-5.3,7.3c-2.2-1.2-2.3-6.2-1-11.2c1.3-4.9,3.2-7.5,5.3-6.6C39.1,10.1,39.4,14.8,38.3,19.7z M0,35.7l9,0l1.9-13.1
	l6.2,0l1.3-8l-6.2,0l0.7-5l6.8,0l1.1-8L5,1.6L0,35.7z M119.7,3.1c-3.7-1.7-8.1-1.3-9.5-1.3c-1.4,0-6.6,0.1-6.6,0.1l-5,34l9,0
	l1.5-11.1c0,0,7.3,0.7,10.5-2.7c3.2-3.4,3.8-3.8,4.2-9C124.1,8,123.4,4.8,119.7,3.1z M114.8,11.9c-0.1,0.7-0.3,2.1-0.9,2.7
	c-0.7,0.6-1.2,1.7-3.6,1.5l1.3-7.7c0,0,2.2-0.1,2.7,1C114.8,10.7,114.9,11.2,114.8,11.9z M184.6,8.9c1.5,0.2,3.3,1.3,4.4,3.5
	c0.4-3.4,1.5-10.5,1.5-10.5s-5.6-3.1-9.8-0.9c-4.2,2.2-5.4,3.3-7.2,7.8c-1.8,4.4-1.1,7.6,0.3,9.4c1.3,1.8,5.3,4.9,5.3,6.4
	c0,1.5-1,3.5-3.7,2.8c-2.7-0.7-4.3-3.8-4.3-3.8l-1.6,10.8c0,0,2.9,2.2,8,1.3c5.1-0.9,9.1-4.9,10.1-8.8c1-4,2.1-6.5-1.7-10.9
	c-2.1-2.5-4.2-3.4-4-4.9C182.1,9.4,183.1,8.6,184.6,8.9z M161.3,1c0,0-3.1,21.6-3.3,23c-0.2,1.5-0.8,2.7-1.5,2.8
	c-0.7,0.2-2,0.6-2.5-0.4c-0.5-1-0.5-1.8-0.4-3.1C153.8,22,157,0.9,157,0.9l-9.1,0c0,0-3.2,21.5-3.5,24.1c-0.3,2.7,0.1,6.7,2.4,8.3
	c2.3,1.6,3.1,2.5,7.3,2.5c4.2,0,6.6-0.8,9-3.4c2.4-2.6,3-3.8,3.5-7.2c0.6-3.4,3.8-24.3,3.8-24.3L161.3,1z M138,1.7l-9,0l-5,34.1
	l15.5,0l1.1-8.1l-6.6,0L138,1.7z M89,0.3c-7.6-1.4-13.8,4.4-16.4,14c-2.7,9.8-0.7,19.5,7.4,21.2c6.9,1.5,14.4-5.3,16.6-15.3
	C98.6,10.8,96,1.5,89,0.3z M87.5,19.5c-1.1,5.1-3.5,8.3-5.3,7.3c-2.2-1.2-2.3-6.2-1-11.2c1.3-4.9,3.2-7.5,5.3-6.6
	C88.4,9.9,88.6,14.7,87.5,19.5z"/>
</svg>
